<?xml version="1.0" encoding="UTF-8"?>
<!DOCTYPE svg PUBLIC "-//W3C//DTD SVG 1.1//EN" "http://www.w3.org/Graphics/SVG/1.1/DTD/svg11.dtd">
<!-- Creator: CorelDRAW 2018 (64-Bit) -->
<svg xmlns="http://www.w3.org/2000/svg" xml:space="preserve" width="104.227mm" height="16.3513mm" version="1.1" style="shape-rendering:geometricPrecision; text-rendering:geometricPrecision; image-rendering:optimizeQuality; fill-rule:evenodd; clip-rule:evenodd"
viewBox="0 0 1512.24 237.24"
 xmlns:xlink="http://www.w3.org/1999/xlink">
 <defs>
  <style type="text/css">
   <![CDATA[
    .fil1 {fill:#E95821;fill-rule:nonzero}
    .fil0 {fill:#005C83;fill-rule:nonzero}
   ]]>
  </style>
 </defs>
 <g id="Слой_x0020_1">
  <metadata id="CorelCorpID_0Corel-Layer"/>
  <g id="_2394385554928">
   <path class="fil0" d="M290.41 174.65l22.59 -113.16c2.95,-14.77 -0.92,-30.01 -10.6,-41.81 -10.04,-12.24 -24.99,-19.37 -41.13,-19.67l-47.07 235.9 154.62 0 12.22 -61.27 -90.62 0z"/>
   <path class="fil0" d="M233.07 69.21c3.34,-16.62 -0.98,-33.76 -11.86,-47.05 -11.53,-14.08 -28.83,-22.16 -47.45,-22.16l-126.7 0 -47.06 235.9c37.3,-0.7 69.19,-26.57 76.15,-62.02l1.83 -9.35 81.89 0c31.32,0 58.36,-21.48 64.3,-51.09l8.89 -44.23zm-70.93 34.06l0 0 -71.94 0 8.62 -42.02 71.95 0 -8.63 42.02z"/>
   <path class="fil0" d="M406 210.95c13.01,15.87 32.51,24.96 53.49,24.96l117.43 0 47.07 -235.91 -63.99 0 -34.85 174.65 -71.94 0 34.85 -174.65 -63.99 0 -31.5 157.9c-3.74,18.74 1.16,38.08 13.44,53.05z"/>
   <path class="fil0" d="M714.63 173.88l22.46 -112.64 45.32 0 12.22 -61.25 -154.61 0 -12.22 61.25 45.3 0 -34.84 174.65c37.32,-0.7 69.3,-26.57 76.37,-62.01z"/>
   <path class="fil1" d="M1187.46 25.38c-13.24,-16.13 -33.06,-25.38 -54.39,-25.38l-116.04 0 -21.9 109.78 42.51 -9.83 -58.65 90.73 -9.03 45.23 63.99 0 34.84 -174.67 71.95 0 -34.86 174.67 63.99 0 31.25 -156.58c3.8,-19.06 -1.18,-38.72 -13.66,-53.95z"/>
   <path class="fil1" d="M931.66 0l-55.26 0c-42.13,0 -78.48,28.92 -86.44,68.77l-19.24 96.45c-3.39,16.98 1.05,34.5 12.17,48.07 11.79,14.37 29.46,22.62 48.47,22.62l76.34 0c28.29,0 52.7,-19.42 58.04,-46.18l14.25 -71.43 -45.77 9.54 54.57 -86.39c-7.3,-24.44 -30.71,-41.46 -57.14,-41.46zm-26.89 174.65l0 0 -71.94 0 22.62 -113.4 71.95 0 -22.62 113.4z"/>
  </g>
  <g id="_2394385556848">
   <polygon class="fil0" points="1230.04,163.11 1219.88,163.11 1220.98,157.43 1248.4,157.43 1247.31,163.11 1236.81,163.11 1231.76,189.29 1224.99,189.29 "/>
   <path class="fil0" d="M1259.76 157.43l-3.69 19.11c-0.3,1.57 -0.4,2.77 -0.31,3.63 0.09,0.86 0.41,1.59 0.96,2.2 1.14,1.21 2.85,1.81 5.14,1.81 3.34,0 5.67,-1.01 6.98,-3.05 0.56,-0.92 1.04,-2.45 1.45,-4.59l3.69 -19.11 6.77 0 -3.62 18.77c-0.95,4.9 -2.75,8.31 -5.41,10.22 -1.47,1.05 -3.1,1.83 -4.88,2.34 -1.79,0.52 -3.84,0.77 -6.16,0.77 -5.02,0 -8.46,-1.15 -10.31,-3.44 -0.89,-1.15 -1.41,-2.38 -1.57,-3.7 -0.16,-1.32 0,-3.22 0.48,-5.71l3.71 -19.25 6.77 0z"/>
   <path class="fil0" d="M1291.24 177.23l-2.33 12.07 -6.77 0 6.15 -31.86 15.55 0c4.83,0 8.15,0.88 9.94,2.63 1.47,1.43 1.94,3.52 1.42,6.26 -0.93,4.81 -3.55,7.93 -7.86,9.33 1.8,0.51 3.06,1.48 3.75,2.93 0.69,1.45 0.8,3.41 0.32,5.89 -0.27,1.4 -0.4,2.32 -0.39,2.77 0.01,0.45 0.08,1.13 0.22,2.05l-7.58 0c-0.1,-0.66 -0.12,-1.42 -0.06,-2.26 0.04,-0.84 0.14,-1.59 0.26,-2.26 0.25,-2.89 -0.15,-4.87 -1.17,-5.94 -1.02,-1.06 -3.02,-1.6 -6.01,-1.6l-5.44 0zm1.09 -5.67l0 0 9.49 0c1.78,0 3.11,-0.37 3.98,-1.08 0.87,-0.72 1.45,-1.83 1.74,-3.34 0.27,-1.37 0.13,-2.36 -0.42,-2.97 -0.63,-0.7 -1.84,-1.05 -3.66,-1.05l-9.49 0 -1.63 8.45z"/>
   <polygon class="fil0" points="1328.57,165.93 1324.06,189.29 1317.67,189.29 1323.82,157.43 1332.47,157.43 1340.6,181.19 1345.18,157.43 1351.58,157.43 1345.43,189.29 1337.11,189.29 "/>
   <path class="fil0" d="M1386.86 157.25c5.44,0 9.15,1.37 11.14,4.1 1.98,2.73 2.44,6.9 1.36,12.5 -0.97,5.03 -2.95,8.86 -5.94,11.5 -3.14,2.77 -7.24,4.15 -12.3,4.15 -5.4,0 -9.19,-1.37 -11.34,-4.13 -2.16,-2.75 -2.74,-6.68 -1.75,-11.81 1.06,-5.53 3.11,-9.63 6.14,-12.31 3.03,-2.67 7.26,-4 12.7,-4zm-0.99 5.39l0 0c-2.83,0 -5.05,0.79 -6.66,2.38 -1.73,1.72 -2.96,4.48 -3.7,8.3 -0.72,3.72 -0.57,6.46 0.42,8.21 1,1.75 2.93,2.62 5.79,2.62 2.83,0 5.07,-0.86 6.72,-2.59 1.65,-1.74 2.84,-4.45 3.55,-8.13 0.72,-3.72 0.59,-6.45 -0.4,-8.18 -0.99,-1.73 -2.89,-2.6 -5.72,-2.6z"/>
   <polygon class="fil0" points="1413.52,165.93 1409.02,189.29 1402.62,189.29 1408.77,157.43 1417.42,157.43 1425.56,181.19 1430.14,157.43 1436.53,157.43 1430.39,189.29 1422.07,189.29 "/>
   <polygon class="fil0" points="1220.84,210.81 1210.68,210.81 1211.78,205.14 1239.2,205.14 1238.11,210.81 1227.61,210.81 1222.56,237 1215.79,237 "/>
   <polygon class="fil0" points="1269.92,205.14 1263.78,237 1257.01,237 1259.53,223.88 1247.27,223.88 1244.74,237 1237.97,237 1244.12,205.14 1250.89,205.14 1248.37,218.21 1260.63,218.21 1263.15,205.14 "/>
   <path class="fil0" d="M1301.69 205.14l-1.09 5.67 -8.82 0c-3.66,0 -6.16,0.57 -7.52,1.68 -1.1,0.9 -2.1,2.84 -2.99,5.85l17.88 0 -1.09 5.67 -17.89 0c-0.27,2.74 0.16,4.64 1.31,5.7 1.14,1.07 3.35,1.6 6.63,1.6l8.54 0 -1.09 5.68 -8.82 0c-5.41,0 -9.21,-1.04 -11.42,-3.11 -2.66,-2.51 -3.4,-6.85 -2.22,-12.99 1.03,-5.35 3.18,-9.38 6.44,-12.09 2.92,-2.45 6.5,-3.68 10.72,-3.68l11.45 0z"/>
   <path class="fil0" d="M1344.68 218.21l-1.1 5.67 -18.94 0 -2.53 13.12 -6.77 0 3.58 -18.54c1.04,-5.38 3.3,-9.09 6.77,-11.13 2.51,-1.47 6.02,-2.2 10.54,-2.2l10.97 0 -1.1 5.67 -10.11 0c-3.37,0 -5.77,0.44 -7.19,1.3 -1.42,0.87 -2.33,2.32 -2.73,4.37l-0.34 1.73 18.94 0z"/>
   <path class="fil0" d="M1360.03 205.14l-3.69 19.11c-0.3,1.56 -0.4,2.77 -0.31,3.63 0.08,0.86 0.41,1.59 0.95,2.2 1.14,1.21 2.85,1.82 5.14,1.82 3.34,0 5.66,-1.01 6.98,-3.05 0.56,-0.92 1.04,-2.45 1.45,-4.59l3.69 -19.11 6.77 0 -3.62 18.77c-0.94,4.9 -2.75,8.31 -5.4,10.22 -1.47,1.05 -3.1,1.83 -4.89,2.34 -1.79,0.51 -3.84,0.76 -6.16,0.76 -5.02,0 -8.46,-1.15 -10.31,-3.44 -0.89,-1.14 -1.42,-2.38 -1.58,-3.7 -0.16,-1.32 0,-3.22 0.48,-5.71l3.71 -19.25 6.77 0z"/>
   <polygon class="fil0" points="1394.61,210.81 1384.45,210.81 1385.55,205.14 1412.97,205.14 1411.88,210.81 1401.38,210.81 1396.33,237 1389.56,237 "/>
   <path class="fil0" d="M1424.32 205.14l-3.69 19.11c-0.3,1.56 -0.4,2.77 -0.31,3.63 0.08,0.86 0.41,1.59 0.95,2.2 1.14,1.21 2.85,1.82 5.14,1.82 3.34,0 5.66,-1.01 6.98,-3.05 0.56,-0.92 1.04,-2.45 1.46,-4.59l3.69 -19.11 6.77 0 -3.62 18.77c-0.94,4.9 -2.75,8.31 -5.4,10.22 -1.47,1.05 -3.1,1.83 -4.89,2.34 -1.79,0.51 -3.84,0.76 -6.16,0.76 -5.02,0 -8.46,-1.15 -10.31,-3.44 -0.9,-1.14 -1.42,-2.38 -1.58,-3.7 -0.16,-1.32 0,-3.22 0.48,-5.71l3.71 -19.25 6.77 0z"/>
   <path class="fil0" d="M1455.81 224.93l-2.33 12.07 -6.77 0 6.15 -31.87 15.55 0c4.83,0 8.15,0.88 9.94,2.63 1.47,1.43 1.94,3.52 1.41,6.26 -0.93,4.82 -3.55,7.93 -7.86,9.33 1.81,0.51 3.06,1.49 3.75,2.94 0.69,1.45 0.8,3.41 0.32,5.89 -0.27,1.4 -0.4,2.32 -0.39,2.77 0.01,0.45 0.08,1.13 0.22,2.05l-7.58 0c-0.1,-0.67 -0.11,-1.42 -0.06,-2.27 0.04,-0.84 0.13,-1.59 0.27,-2.26 0.25,-2.89 -0.15,-4.87 -1.17,-5.94 -1.02,-1.06 -3.02,-1.6 -6.01,-1.6l-5.44 0zm1.1 -5.67l0 0 9.49 0c1.78,0 3.11,-0.37 3.97,-1.08 0.87,-0.72 1.45,-1.83 1.74,-3.34 0.26,-1.37 0.13,-2.36 -0.43,-2.97 -0.63,-0.7 -1.85,-1.05 -3.66,-1.05l-9.49 0 -1.63 8.45z"/>
   <path class="fil0" d="M1512.24 205.14l-1.1 5.67 -8.82 0c-3.66,0 -6.17,0.57 -7.53,1.68 -1.1,0.9 -2.09,2.84 -2.99,5.85l17.89 0 -1.1 5.67 -17.89 0c-0.27,2.74 0.16,4.64 1.31,5.7 1.14,1.07 3.35,1.6 6.63,1.6l8.54 0 -1.1 5.68 -8.82 0c-5.41,0 -9.21,-1.04 -11.42,-3.11 -2.66,-2.51 -3.4,-6.85 -2.22,-12.99 1.03,-5.35 3.18,-9.38 6.44,-12.09 2.92,-2.45 6.5,-3.68 10.73,-3.68l11.45 0z"/>
  </g>
 </g>
</svg>
